<?xml version="1.0" encoding="UTF-8"?>
<svg id="Calque_1" xmlns="http://www.w3.org/2000/svg" version="1.1" viewBox="0 0 1000 800">
  <!-- Generator: Adobe Illustrator 29.5.0, SVG Export Plug-In . SVG Version: 2.1.0 Build 137)  -->
  <path d="M304.8,88.7c0-53.9-33.6-67.2-68.8-70.3v-7h231.2v7c-31.3,3.1-64.8,16.4-64.8,70.3v392.2c0,53.9,33.6,67.2,64.8,70.3v7H43.9s-19.5-161.7-19.5-161.7h11.7c22.7,97.7,118,148.4,200,148.4h68.8s0-456.2,0-456.2Z"/>
  <path d="M675.6,167.8c-32.8,3.1-64.8,16.4-64.8,70.3v392.2c0,53.9,32,67.2,64.8,70.3v7h-227.3v-7c40.6-3.1,64.8-23.4,64.8-70.3V238.2c0-53.9-32-67.2-64.8-70.3v-7h227.3v7ZM821.7,791.9l-184.4-260.2v-3.1l145.3-167.2c52.3-60.2,37.5-102.3-9.4-109.4v-7h192.2v7.8c-42.2,3.9-93,29.7-162.5,108.6l-93.8,107.8,166.4,231.2c43.7,60.2,75,80.5,100,83.6v7.8h-153.9Z"/>
</svg>