<?xml version="1.0" encoding="UTF-8"?>
<svg id="Calque_1" xmlns="http://www.w3.org/2000/svg" version="1.1" viewBox="0 0 590 590">
  <!-- Generator: Adobe Illustrator 29.3.1, SVG Export Plug-In . SVG Version: 2.1.0 Build 151)  -->
  <defs>
    <style>
      .st0 {
        fill: none;
      }

      .st1 {
        fill: #5d87a1;
      }

      .st2 {
        fill: #f8981d;
      }
    </style>
  </defs>
  <path class="st0" d="M0,0h590v590H0V0Z"/>
  <path class="st1" d="M144.9,465.6h-21.7c-.8-36.6-2.9-70.9-6.3-103.1h-.2l-33,103.1h-16.5l-32.8-103.1h-.2c-2.4,30.9-4,65.3-4.6,103.1H10c1.3-46,4.5-89.1,9.6-129.4h26.8l31.2,95.1h.2l31.4-95.1h25.7c5.6,47.2,8.9,90.3,10,129.4M238.9,370.1c-8.8,47.9-20.5,82.6-34.9,104.3-11.2,16.7-23.6,25.1-37,25.1s-8-1.1-13.2-3.2v-11.5c2.6.4,5.6.6,9,.6,6.3,0,11.3-1.7,15.2-5.2,4.6-4.2,6.9-8.9,6.9-14.2s-1.8-10.9-5.4-22l-23.8-73.8h21.3l17.1,55.2c3.8,12.5,5.4,21.3,4.8,26.3,9.3-24.9,15.8-52.1,19.6-81.5h20.5Z"/>
  <path class="st2" d="M527.1,465.6h-61.5v-129.4h20.7v113.5h40.8v15.9ZM449.5,468.7l-23.8-11.7c2.1-1.7,4.1-3.6,5.9-5.8,10.1-11.9,15.2-29.4,15.2-52.7,0-42.8-16.8-64.2-50.4-64.2s-29.3,5.4-38.5,16.3c-10.1,11.9-15.1,29.4-15.1,52.5s4.5,39.4,13.4,50c8.2,9.6,20.5,14.4,37,14.4s11.8-.8,16.9-2.3l31,18,8.4-14.5ZM372.5,439.7c-5.2-8.4-7.9-22-7.9-40.6,0-32.6,9.9-48.9,29.7-48.9s18,3.9,22.8,11.7c5.2,8.4,7.9,21.9,7.9,40.3,0,32.8-9.9,49.3-29.7,49.3-10.4,0-18-3.9-22.8-11.7M333.7,429.7c0,11-4,20-12.1,27-8.1,7-18.9,10.5-32.4,10.5s-24.9-4-36.8-12.1l5.6-11.1c10.2,5.1,19.5,7.7,27.8,7.7s13.9-1.7,18.3-5.2c4.4-3.4,7-8.3,7-14.4s-5.4-14.3-15.2-19.8c-9.1-5-27.2-15.4-27.2-15.4-9.8-7.2-14.8-14.9-14.8-27.5s3.7-19,11-25.4c7.4-6.5,16.8-9.7,28.5-9.7s22.9,3.2,32.8,9.6l-5,11.1c-8.4-3.6-16.7-5.4-24.9-5.4s-11.8,1.6-15.3,4.8c-3.6,3.2-5.8,7.3-5.8,12.3,0,7.7,5.5,14.3,15.6,19.9,9.2,5,27.8,15.6,27.8,15.6,10.1,7.2,15.1,14.8,15.1,27.3"/>
  <path class="st1" d="M553.1,292.8c-12.5-.3-22.2.9-30.3,4.4-2.3.9-6.1.9-6.4,3.9,1.3,1.3,1.4,3.3,2.5,5,1.9,3.1,5.1,7.3,8.1,9.5,3.3,2.5,6.6,5,10,7.2,6.1,3.8,13,6,18.9,9.7,3.5,2.2,6.9,5,10.3,7.3,1.7,1.3,2.8,3.3,5,4.1v-.5c-1.1-1.4-1.4-3.4-2.5-5l-4.7-4.5c-4.5-6.1-10.2-11.4-16.3-15.8-5-3.4-16-8.1-18-13.9l-.3-.3c3.4-.3,7.5-1.6,10.8-2.5,5.3-1.4,10.2-1.1,15.6-2.5,2.5-.6,5-1.4,7.5-2.2v-1.4c-2.8-2.8-4.8-6.6-7.8-9.2-8-6.9-16.7-13.6-25.8-19.2-4.9-3.1-11.1-5.2-16.3-7.8-1.9-.9-5-1.4-6.1-3-2.8-3.4-4.4-8-6.4-12-4.5-8.6-8.9-18.1-12.8-27.2-2.8-6.1-4.5-12.2-8-17.8-16.1-26.6-33.6-42.7-60.5-58.5-5.8-3.3-12.7-4.7-20-6.4l-11.7-.6c-2.5-1.1-5-4.1-7.2-5.5-8.9-5.6-31.9-17.8-38.5-1.7-4.2,10.2,6.3,20.2,9.9,25.3,2.7,3.6,6.1,7.7,8,11.7,1.1,2.7,1.4,5.5,2.5,8.3,2.5,6.9,4.8,14.5,8.1,21,1.7,3.3,3.6,6.7,5.8,9.7,1.3,1.7,3.4,2.5,3.9,5.3-2.2,3.1-2.4,7.8-3.6,11.7-5.6,17.7-3.4,39.5,4.5,52.5,2.5,3.9,8.4,12.5,16.4,9.2,7-2.8,5.5-11.7,7.5-19.5.5-1.9.2-3.1,1.1-4.4v.3c2.2,4.4,4.4,8.6,6.4,13,4.9,7.7,13.3,15.6,20.3,20.9,3.7,2.8,6.7,7.7,11.4,9.4v-.5h-.3c-1-1.4-2.3-2-3.6-3.1-2.8-2.8-5.9-6.3-8.1-9.4-6.6-8.8-12.4-18.5-17.5-28.5-2.5-4.9-4.7-10.2-6.7-15-.9-1.9-.9-4.7-2.5-5.6-2.4,3.4-5.8,6.4-7.5,10.6-3,6.7-3.3,15-4.4,23.6l-.6.3c-5-1.3-6.7-6.4-8.6-10.8-4.7-11.1-5.5-28.9-1.4-41.8,1.1-3.3,5.8-13.6,3.9-16.7-.9-3-4.1-4.7-5.8-7.1-2-3-4.2-6.7-5.6-10-3.7-8.8-5.6-18.4-9.7-27.2-1.9-4.1-5.2-8.3-7.8-12-3-4.2-6.3-7.2-8.6-12.2-.8-1.7-1.9-4.5-.6-6.4.3-1.3.9-1.7,2.2-2,2-1.7,7.8.5,9.8,1.4,5.8,2.3,10.6,4.5,15.5,7.8,2.2,1.6,4.5,4.5,7.3,5.3h3.3c5,1.1,10.6.3,15.3,1.7,8.3,2.7,15.8,6.6,22.5,10.8,20.5,13,37.4,31.4,48.8,53.5,1.9,3.6,2.7,6.9,4.4,10.6,3.3,7.7,7.4,15.5,10.6,23,3.3,7.3,6.4,14.8,11.1,20.9,2.3,3.3,11.7,5,16,6.7,3.1,1.4,8,2.6,10.8,4.4,5.3,3.3,10.6,7,15.6,10.6,2.5,1.9,10.3,5.8,10.8,8.9M393.6,157c-2.2,0-4.3.2-6.4.8v.3h.3c1.3,2.5,3.4,4.2,5,6.4,1.3,2.5,2.4,5,3.6,7.5l.3-.3c2.2-1.6,3.3-4.1,3.3-7.8-1-1.1-1.1-2.2-1.9-3.3-.9-1.6-3-2.3-4.2-3.6"/>
  <path class="st2" d="M568,465.6h3.2v-15.9h-4.9l-4,10.8-4.3-10.8h-4.7v15.9h3.1v-12.1h.2l4.5,12.1h2.3l4.5-12.1v12.1h0ZM541.9,465.6h3.4v-13.2h4.5v-2.7h-12.6v2.7h4.7v13.2s0,0,0,0Z"/>
</svg>